<?xml version="1.0" encoding="utf-8"?><!DOCTYPE svg PUBLIC "-//W3C//DTD SVG 1.1//EN" "http://www.w3.org/Graphics/SVG/1.1/DTD/svg11.dtd"><svg version="1.1" xmlns="http://www.w3.org/2000/svg" xmlns:xlink="http://www.w3.org/1999/xlink" width="24" height="24" viewBox="0 0 24 24" data-tags="speaker_phone"><g fill="#444" transform="scale(0.0234375 0.0234375)"><path d="M640 854v-342h-256v342h256zM634 428q20 0 34 14t14 34v414q0 20-14 34t-34 14h-244q-20 0-34-14t-14-34v-414q0-20 14-35t34-15zM512 42q80 0 176 40t154 98l-60 60q-112-112-270-112t-270 112l-60-60q138-138 330-138zM298 302q88-88 214-88t214 88l-62 60q-62-62-152-62t-152 62z" /></g></svg>