<?xml version="1.0" encoding="utf-8"?><!DOCTYPE svg PUBLIC "-//W3C//DTD SVG 1.1//EN" "http://www.w3.org/Graphics/SVG/1.1/DTD/svg11.dtd"><svg version="1.1" xmlns="http://www.w3.org/2000/svg" xmlns:xlink="http://www.w3.org/1999/xlink" width="48" height="48" viewBox="0 0 48 48" data-tags="ipod,music,songs"><g fill="#444" transform="scale(0.046875 0.046875)"><path d="M448 778.666c0 29.44 23.894 53.334 53.334 53.334s53.334-23.894 53.334-53.334-23.894-53.332-53.334-53.332-53.334 23.892-53.334 53.332zM128 938.666c0 47.146 38.186 85.334 85.334 85.334h576c47.146 0 85.334-38.186 85.334-85.334l-0.002-853.332c0-47.146-38.186-85.334-85.334-85.334h-575.998c-47.148 0-85.334 38.186-85.334 85.334v853.332zM281.6 106.666h439.466c26.028 0 46.934 20.908 46.934 46.934v354.134c0 26.026-20.906 46.934-46.934 46.934l-439.466-0.002c-26.026 0-46.934-20.906-46.934-46.934l-0-354.132c0-26.026 20.908-46.934 46.934-46.934zM362.666 778.666c0-76.586 62.080-138.666 138.666-138.666s138.666 62.080 138.666 138.666-62.078 138.668-138.664 138.668-138.668-62.080-138.668-138.668z" /></g></svg>