<?xml version="1.0" encoding="utf-8"?><!DOCTYPE svg PUBLIC "-//W3C//DTD SVG 1.1//EN" "http://www.w3.org/Graphics/SVG/1.1/DTD/svg11.dtd"><svg version="1.1" xmlns="http://www.w3.org/2000/svg" xmlns:xlink="http://www.w3.org/1999/xlink" width="32" height="32" viewBox="0 0 32 32" data-tags="music,song"><g fill="#444" transform="scale(0.03125 0.03125)"><path d="M832 896c-106.016 0-192-71.616-192-160s85.984-160 192-160c22.56 0 43.872 3.84 64 9.824v-297.824l-512 128v480h-3.872c-17.792 73.024-95.264 128-188.128 128-106.016 0-192-71.616-192-160s85.984-160 192-160c22.56 0 43.872 3.84 64 9.824v-553.824l640-160h128v736c0 88.384-85.984 160-192 160z" /></g></svg>