<?xml version="1.0" encoding="utf-8"?><!DOCTYPE svg PUBLIC "-//W3C//DTD SVG 1.1//EN" "http://www.w3.org/Graphics/SVG/1.1/DTD/svg11.dtd"><svg version="1.1" xmlns="http://www.w3.org/2000/svg" xmlns:xlink="http://www.w3.org/1999/xlink" width="48" height="48" viewBox="0 0 48 48" data-tags="speaker"><g fill="#444" transform="scale(0.046875 0.046875)"><path d="M448 330.666c0-29.44 23.894-53.334 53.334-53.334s53.334 23.894 53.334 53.334-23.894 53.334-53.334 53.334-53.334-23.894-53.334-53.334zM501.334 192c-76.586 0-138.666 62.080-138.666 138.666s62.080 138.666 138.666 138.666 138.666-62.080 138.666-138.666-62.080-138.666-138.666-138.666zM384 832c23.466 0 42.666 19.2 42.666 42.666s-19.2 42.666-42.666 42.666h-160c-29.44 0.002-53.334 23.894-53.334 53.334s23.894 53.334 53.334 53.334h554.666c29.44 0 53.334-23.894 53.334-53.334s-23.894-53.332-53.334-53.332h-160c-23.466 0-42.666-19.2-42.666-42.666s19.2-42.666 42.666-42.666h128c47.146 0 85.334-38.186 85.334-85.334v-661.334c0-47.146-38.186-85.334-85.334-85.334h-490.666c-47.146 0-85.334 38.186-85.334 85.334v661.334c0 47.146 38.186 85.334 85.334 85.334l128-0.002zM618.666 672c0-29.44 23.894-53.334 53.334-53.334s53.334 23.894 53.334 53.334-23.894 53.334-53.334 53.334-53.334-23.894-53.334-53.334zM501.334 106.666c123.732 0 224 100.268 224 224s-100.268 224-224 224-224-100.266-224-224 100.266-224 224-224z" /></g></svg>