<?xml version="1.0" encoding="utf-8"?><!DOCTYPE svg PUBLIC "-//W3C//DTD SVG 1.1//EN" "http://www.w3.org/Graphics/SVG/1.1/DTD/svg11.dtd"><svg version="1.1" xmlns="http://www.w3.org/2000/svg" xmlns:xlink="http://www.w3.org/1999/xlink" width="24" height="24" viewBox="0 0 24 24" data-tags="music"><g fill="#444" transform="scale(0.0234375 0.0234375)"><path d="M341.333 768c0 23.595-9.515 44.843-25.003 60.331s-36.736 25.003-60.331 25.003-44.843-9.515-60.331-25.003-25.003-36.736-25.003-60.331 9.515-44.843 25.003-60.331 36.736-25.003 60.331-25.003 44.843 9.515 60.331 25.003 25.003 36.736 25.003 60.331zM938.667 682.667v-554.667c0-2.133-0.171-4.565-0.597-6.997-3.883-23.253-25.856-38.955-49.109-35.072l-512 85.333c-20.309 3.456-35.627 20.992-35.627 42.069v406.827c-25.088-14.507-54.272-22.827-85.333-22.827-47.104 0-89.856 19.157-120.661 50.005s-50.005 73.557-50.005 120.661 19.157 89.856 50.005 120.661 73.557 50.005 120.661 50.005 89.856-19.157 120.661-50.005 50.005-73.557 50.005-120.661v-518.528l426.667-71.125v356.48c-25.088-14.507-54.272-22.827-85.333-22.827-47.104 0-89.856 19.157-120.661 50.005s-50.005 73.557-50.005 120.661 19.157 89.856 50.005 120.661 73.557 50.005 120.661 50.005 89.856-19.157 120.661-50.005 50.005-73.557 50.005-120.661zM853.333 682.667c0 23.595-9.515 44.843-25.003 60.331s-36.736 25.003-60.331 25.003-44.843-9.515-60.331-25.003-25.003-36.736-25.003-60.331 9.515-44.843 25.003-60.331 36.736-25.003 60.331-25.003 44.843 9.515 60.331 25.003 25.003 36.736 25.003 60.331z" /></g></svg>