<?xml version="1.0" encoding="utf-8"?><!DOCTYPE svg PUBLIC "-//W3C//DTD SVG 1.1//EN" "http://www.w3.org/Graphics/SVG/1.1/DTD/svg11.dtd"><svg version="1.1" xmlns="http://www.w3.org/2000/svg" xmlns:xlink="http://www.w3.org/1999/xlink" width="20" height="20" viewBox="0 0 20 20" data-tags="folder-music"><g fill="#444" transform="scale(0.01953125 0.01953125)"><path d="M942.336 143.309c-5.734-22.528-33.587-40.909-61.952-40.909h-736.768c-28.416 0-56.269 18.381-61.952 40.909l-10.291 61.491h881.203l-10.24-61.491zM993.894 256h-963.84c-17.51 0-31.181 15.053-29.542 32.512l47.258 597.453c1.946 20.173 18.944 35.635 39.219 35.635h849.971c20.326 0 37.274-15.462 39.219-35.635l47.258-597.453c1.69-17.459-12.032-32.512-29.542-32.512zM611.43 641.075c-6.554 13.568-13.21 14.285-10.342 0 7.475-36.915 2.406-116.173-53.402-124.979v168.653c0 34.509-15.923 64.614-58.163 78.234-41.062 13.107-86.989-0.563-97.69-30.003-10.752-29.491 13.363-65.331 53.862-80.077 22.63-8.243 48.845-10.394 66.509-3.584v-239.718h35.533c-0.051 83.61 144.282 65.28 63.693 231.475z" /></g></svg>