<?xml version="1.0" encoding="utf-8"?><!DOCTYPE svg PUBLIC "-//W3C//DTD SVG 1.1//EN" "http://www.w3.org/Graphics/SVG/1.1/DTD/svg11.dtd"><svg version="1.1" xmlns="http://www.w3.org/2000/svg" xmlns:xlink="http://www.w3.org/1999/xlink" width="20" height="20" viewBox="0 0 20 20" data-tags="music-artist"><g fill="#444" transform="scale(0.01953125 0.01953125)"><path d="M806.4 409.6l-191.488-192c-0.314-4.244-0.493-9.193-0.493-14.184 0-112.825 91.463-204.288 204.288-204.288 56.879 0 108.329 23.246 145.368 60.755l0.021 0.021c37.373 37.113 60.506 88.522 60.506 145.335 0 113.108-91.692 204.8-204.8 204.8-4.715 0-9.394-0.159-14.030-0.473l0.628 0.034zM94.72 783.36l471.040-470.528 144.896 144.896-471.040 471.040-144.384-145.408zM23.040 928.256l108.032-108.544 72.704 72.704-108.544 108.544-72.704-72.704zM512 768l102.4-102.4v358.4h-102.4v-256z" /></g></svg>