<?xml version="1.0" encoding="utf-8"?><!DOCTYPE svg PUBLIC "-//W3C//DTD SVG 1.1//EN" "http://www.w3.org/Graphics/SVG/1.1/DTD/svg11.dtd"><svg version="1.1" xmlns="http://www.w3.org/2000/svg" xmlns:xlink="http://www.w3.org/1999/xlink" width="20" height="20" viewBox="0 0 20 20" data-tags="music-notes"><g fill="#444" transform="scale(0.01953125 0.01953125)"><path d="M1024 128v-128l-716.8 102.4v623.104c-15.181-5.515-32.704-8.704-50.972-8.704-0.080 0-0.16 0-0.24 0l0.012-0h-102.4c-84.831 0-153.6 68.769-153.6 153.6s68.769 153.6 153.6 153.6v0h102.4c84.831 0 153.6-68.769 153.6-153.6v0-578.048l512-72.192v403.456c-15.181-5.515-32.704-8.704-50.972-8.704-0.080 0-0.16 0-0.24 0l0.012-0h-102.4c-84.831-0-153.6 68.769-153.6 153.6s68.769 153.6 153.6 153.6h102.4c84.831 0 153.6-68.769 153.6-153.6v0-640.512z" /></g></svg>