<?xml version="1.0" encoding="utf-8"?><!DOCTYPE svg PUBLIC "-//W3C//DTD SVG 1.1//EN" "http://www.w3.org/Graphics/SVG/1.1/DTD/svg11.dtd"><svg version="1.1" xmlns="http://www.w3.org/2000/svg" xmlns:xlink="http://www.w3.org/1999/xlink" width="20" height="20" viewBox="0 0 20 20" data-tags="music-playlist"><g fill="#444" transform="scale(0.01953125 0.01953125)"><path d="M819.2 870.4c0 84.831-68.769 153.6-153.6 153.6v0h-102.4c-84.831 0-153.6-68.769-153.6-153.6s68.769-153.6 153.6-153.6v0h102.4c0.068-0 0.148-0 0.228-0 18.268 0 35.791 3.189 52.043 9.041l-1.071-0.337v-674.304l307.2-51.2v204.8l-204.8 34.304v631.296zM0 153.6h614.4v102.4h-614.4v-102.4zM0 358.4h614.4v102.4h-614.4v-102.4zM0 563.2h614.4v102.4h-614.4v-102.4zM0 768h307.2v102.4h-307.2v-102.4z" /></g></svg>