<?xml version="1.0" encoding="utf-8"?><!DOCTYPE svg PUBLIC "-//W3C//DTD SVG 1.1//EN" "http://www.w3.org/Graphics/SVG/1.1/DTD/svg11.dtd"><svg version="1.1" xmlns="http://www.w3.org/2000/svg" xmlns:xlink="http://www.w3.org/1999/xlink" width="24" height="24" viewBox="0 0 24 24" data-tags="bluetooth_searching,bluetooth_audio"><g fill="#444" transform="scale(0.0234375 0.0234375)"><path d="M550 696l-80-82v162zM470 248v162l80-82zM670 328l-184 184 184 184-244 242h-42v-324l-196 196-60-60 238-238-238-238 60-60 196 196v-324h42zM834 286q62 100 62 222 0 120-66 226l-50-50q42-84 42-172t-42-172zM608 512l98-98q20 50 20 98 0 50-20 100z" /></g></svg>