<?xml version="1.0" encoding="utf-8"?><!DOCTYPE svg PUBLIC "-//W3C//DTD SVG 1.1//EN" "http://www.w3.org/Graphics/SVG/1.1/DTD/svg11.dtd"><svg version="1.1" xmlns="http://www.w3.org/2000/svg" xmlns:xlink="http://www.w3.org/1999/xlink" width="24" height="24" viewBox="0 0 24 24" data-tags="library_music"><g fill="#444" transform="scale(0.0234375 0.0234375)"><path d="M170 256v598h598v84h-598q-34 0-59-25t-25-59v-598h84zM768 298v-84h-170v234q-28-22-64-22-44 0-76 32t-32 76 32 75 76 31 75-31 31-75v-236h128zM854 86q34 0 59 25t25 59v512q0 34-25 60t-59 26h-512q-34 0-60-26t-26-60v-512q0-34 26-59t60-25h512z" /></g></svg>