<?xml version="1.0" encoding="utf-8"?><!DOCTYPE svg PUBLIC "-//W3C//DTD SVG 1.1//EN" "http://www.w3.org/Graphics/SVG/1.1/DTD/svg11.dtd"><svg version="1.1" xmlns="http://www.w3.org/2000/svg" xmlns:xlink="http://www.w3.org/1999/xlink" width="24" height="24" viewBox="0 0 24 24" data-tags="speaker"><g fill="#444" transform="scale(0.0234375 0.0234375)"><path d="M256 42.667c-35.328 0-67.413 14.379-90.496 37.504s-37.504 55.168-37.504 90.496v682.667c0 35.328 14.379 67.413 37.504 90.496s55.168 37.504 90.496 37.504h512c35.328 0 67.413-14.379 90.496-37.504s37.504-55.168 37.504-90.496v-682.667c0-35.328-14.379-67.413-37.504-90.496s-55.168-37.504-90.496-37.504zM256 128h512c11.776 0 22.4 4.736 30.165 12.501s12.501 18.389 12.501 30.165v682.667c0 11.776-4.736 22.4-12.501 30.165s-18.389 12.501-30.165 12.501h-512c-11.776 0-22.4-4.736-30.165-12.501s-12.501-18.389-12.501-30.165v-682.667c0-11.776 4.736-22.4 12.501-30.165s18.389-12.501 30.165-12.501zM725.333 597.333c0-58.88-23.936-112.299-62.464-150.869s-91.989-62.464-150.869-62.464-112.299 23.936-150.869 62.464-62.464 91.989-62.464 150.869 23.936 112.299 62.464 150.869 91.989 62.464 150.869 62.464 112.299-23.936 150.869-62.464 62.464-91.989 62.464-150.869zM640 597.333c0 35.371-14.293 67.285-37.504 90.496s-55.125 37.504-90.496 37.504-67.285-14.293-90.496-37.504-37.504-55.125-37.504-90.496 14.293-67.285 37.504-90.496 55.125-37.504 90.496-37.504 67.285 14.293 90.496 37.504 37.504 55.125 37.504 90.496zM512 298.667c23.552 0 42.667-19.115 42.667-42.667s-19.115-42.667-42.667-42.667-42.667 19.115-42.667 42.667 19.115 42.667 42.667 42.667z" /></g></svg>