<?xml version="1.0" encoding="utf-8"?><!DOCTYPE svg PUBLIC "-//W3C//DTD SVG 1.1//EN" "http://www.w3.org/Graphics/SVG/1.1/DTD/svg11.dtd"><svg version="1.1" xmlns="http://www.w3.org/2000/svg" xmlns:xlink="http://www.w3.org/1999/xlink" width="35.75" height="32" viewBox="0 0 35.75 32" data-tags="volume,speaker,sound,loud"><g fill="#444" transform="scale(0.03125 0.03125)"><path d="M757.44 338.656l-31.68 64.608c30.304 25.984 49.504 64.544 49.504 107.552 0 47.424-10.752 90.304-46.496 116.032l30.624 54.624c46.752-41.952 76.192-102.816 76.192-170.592-0.032-68.64-30.272-130.272-78.144-172.224zM992.576 112.416l-44.576 54.080c83.136 90.752 135.744 211.68 135.744 344.448 0 132.544-52.512 253.312-135.36 344.032l44.512 55.2c94.816-106.752 152.256-244.736 152.256-399.232-0.032-154.080-58.208-291.84-152.576-398.528zM874.304 222.912l-39.68 57.056c58.944 59.2 96.32 140.8 96.32 230.944 0 91.968-38.88 175.008-99.936 234.528l41.248 54.752c73.76-75.328 118.176-175.488 118.176-289.248 0-111.648-44.736-213.056-116.128-288.032zM0 384.224v258.88c0 32.992 28.672 75.328 64 75.328h192.864l-0-414.048h-192.864c-35.328 0-64 46.88-64 79.84zM554.912 115.808l-268.192 184.864v424l268.192 186.88c35.328 0 86.016-26.752 86.016-59.744v-676.256c0-32.992-50.688-59.744-86.016-59.744z" /></g></svg>