<?xml version="1.0" encoding="utf-8"?><!DOCTYPE svg PUBLIC "-//W3C//DTD SVG 1.1//EN" "http://www.w3.org/Graphics/SVG/1.1/DTD/svg11.dtd"><svg version="1.1" xmlns="http://www.w3.org/2000/svg" xmlns:xlink="http://www.w3.org/1999/xlink" width="32" height="32" viewBox="0 0 32 32" data-tags="volume,speaker,mute"><g fill="#444" transform="scale(0.03125 0.03125)"><path d="M918.88 509.952l71.68 71.744c4.672 4.64 4.672 12.192 0 16.864l-25.312 25.312c-4.64 4.64-12.192 4.64-16.864 0l-71.68-71.744-71.744 71.744c-4.672 4.64-12.192 4.64-16.864 0l-25.312-25.312c-4.64-4.672-4.64-12.256 0-16.864l71.744-71.744-71.744-71.744c-4.64-4.672-4.64-12.192 0-16.864l25.312-25.312c4.672-4.672 12.224-4.672 16.864 0l71.744 71.712 71.68-71.712c4.672-4.672 12.256-4.672 16.864 0l25.312 25.312c4.672 4.672 4.672 12.224 0 16.864l-71.68 71.744zM584.8 909.888l-268.128-186.88 0-424.032 268.128-184.864c35.36 0 86.048 26.752 86.048 59.744v676.256c0.032 33.024-50.656 59.776-86.048 59.776zM29.952 643.424v-260.896c0-32.96 28.672-79.84 64-79.84h192.864v416.032h-192.864c-35.36 0.032-64-42.272-64-75.296z" /></g></svg>