<?xml version="1.0" encoding="utf-8"?><!DOCTYPE svg PUBLIC "-//W3C//DTD SVG 1.1//EN" "http://www.w3.org/Graphics/SVG/1.1/DTD/svg11.dtd"><svg version="1.1" xmlns="http://www.w3.org/2000/svg" xmlns:xlink="http://www.w3.org/1999/xlink" width="18" height="18" viewBox="0 0 18 18" data-tags="sound"><g fill="#444" transform="scale(0.017578125 0.017578125)"><path d="M581.056 113.778c-6.332 0-12.779 1.819-19.001 5.764l-230.277 159.847c-4.722 3.292-10.332 5.056-16.11 5.056h-202.112c-31.305 0-56.667 25.472-56.667 56.889v341.333c0 31.417 25.362 56.889 56.667 56.889h202.112c5.778 0 11.388 1.764 16.11 5.056l230.277 159.847c6.222 3.945 12.695 5.764 19.001 5.764 22.277 0 42.5-22.736 42.5-54v-688.43c0-31.278-20.222-54.014-42.5-54.014zM510.222 730.139l-135.78-94.265c-9.472-6.569-20.722-10.1-32.222-10.1h-143.666c-15.666 0-28.334-12.736-28.334-28.444v-170.667c0-15.708 12.667-28.444 28.334-28.444h143.668c11.5 0 22.75-3.527 32.222-10.098l135.778-94.26v436.277z" /><path d="M963.333 500.583c-4.889-99.417-86.112-170.139-142.612-207.57-26.75-17.737-62.222-6.93-75.364 23.195l-2.137 4.889c-10.667 24.5-2.583 53.403 19.111 67.945 40.167 26.903 90.222 70.958 92.389 117.486 1.833 38.473-31.445 83.5-94.612 129.111-22.667 16.375-30.112 47.708-16.222 72.555l2.389 4.292c15.111 27.001 49.278 35.486 73.945 17.762 98.999-71.15 147.111-148.233 143.111-229.664z" /></g></svg>