<?xml version="1.0" encoding="utf-8"?><!DOCTYPE svg PUBLIC "-//W3C//DTD SVG 1.1//EN" "http://www.w3.org/Graphics/SVG/1.1/DTD/svg11.dtd"><svg version="1.1" xmlns="http://www.w3.org/2000/svg" xmlns:xlink="http://www.w3.org/1999/xlink" width="20" height="20" viewBox="0 0 20 20" data-tags="music"><g fill="#444" transform="scale(0.01953125 0.01953125)"><path d="M819.2 51.2h-614.4c-28.314 0-51.2 22.886-51.2 51.2v819.2c0 28.262 22.886 51.2 51.2 51.2h614.4c28.314 0 51.2-22.938 51.2-51.2v-819.2c0-28.262-22.886-51.2-51.2-51.2zM655.104 589.773c-9.472 19.558-19.098 20.582-14.899 0 10.803-53.197 3.482-167.475-77.005-180.173v243.2c0 49.818-22.938 93.184-83.917 112.794-59.187 18.893-125.389-0.819-140.902-43.315s19.302-94.208 77.722-115.507c32.614-11.878 70.4-14.95 95.898-5.171v-345.6h51.2c0 120.576 208.128 94.157 91.904 333.773z" /></g></svg>