<?xml version="1.0" encoding="utf-8"?><!DOCTYPE svg PUBLIC "-//W3C//DTD SVG 1.1//EN" "http://www.w3.org/Graphics/SVG/1.1/DTD/svg11.dtd"><svg version="1.1" xmlns="http://www.w3.org/2000/svg" xmlns:xlink="http://www.w3.org/1999/xlink" width="32" height="32" viewBox="0 0 32 32" data-tags="airplayaudio"><g fill="#444" transform="scale(0.03125 0.03125)"><path d="M508.083 7.834c-122.769 0.969-245.615 45.837-343.253 135.334-208.282 190.925-220.425 515.465-29.495 723.75 8.678 10.411 19.085 19.085 29.5 29.5 5.205 3.469 12.207 3.541 17.417-1.668l22.583-26.082c5.205-5.205 5.205-13.875 0-19.085-182.251-168.363-194.432-454.746-24.333-637.001 170.099-182.246 454.75-194.347 637.001-24.247 182.246 170.099 194.347 454.665 24.247 636.915-8.678 8.678-15.573 17.391-24.247 24.333-5.205 5.205-5.205 13.875 0 19.085l22.583 26.082c5.205 5.205 13.875 5.137 19.081 1.664 208.286-192.661 220.429-515.46 29.5-723.746-102.353-110.652-241.442-165.931-380.582-164.834zM524.582 157.918c-93.726-3.038-188.732 29.525-262.498 98.082-147.537 137.122-156.203 367.966-19.085 515.499 5.205 5.205 10.389 12.126 17.335 17.335 5.205 5.205 13.875 5.205 19.081 0l22.583-26.001c5.205-5.205 5.205-13.875 0-19.085-60.749-57.276-97.165-138.867-97.165-223.915 0-168.363 137.054-305.502 305.417-305.502s305.498 138.803 305.498 307.17c0 83.311-34.748 164.971-95.497 222.251-5.205 5.205-5.205 13.875 0 19.081l22.583 26.001c5.205 5.205 13.875 6.955 19.081 1.749 147.537-138.859 154.539-369.715 17.417-517.248-68.561-73.771-161.024-112.384-254.75-115.418zM513.25 299.418c-56.41-0.87-113.237 19.891-157.5 62.417-88.521 85.047-90.219 223.893-5.167 312.414l5.163 5.248c5.21 5.21 13.879 5.21 19.089 0l22.583-26.078c5.205-5.205 5.205-13.879 0-19.085-29.508-29.508-46.835-71.108-46.835-114.5-0-0.129-0.001-0.283-0.001-0.436 0-87.941 71.291-159.232 159.232-159.232 0.153 0 0.306 0 0.459 0.001l-0.024-0c0.129-0 0.283-0.001 0.436-0.001 87.941 0 159.232 71.291 159.232 159.232 0 0.153-0 0.306-0.001 0.459l0-0.024c0 43.392-17.34 83.255-48.585 114.5-5.205 5.205-5.205 13.875 0 19.085l22.583 26.082c5.205 5.205 13.875 5.205 19.085 0 86.784-85.052 90.3-223.898 5.248-312.418-42.526-44.258-98.59-66.799-154.999-67.665zM513.502 629.833c-5.858-0.213-11.959 1.911-17.169 6.251l-1.664 1.749-305.502 343.667c-6.942 8.678-6.929 20.821 1.749 29.5 3.473 3.473 8.614 5.248 12.083 5.248h612.749c10.415 0 20.834-8.683 20.834-20.83 0-5.205-1.694-10.445-5.163-13.918l-302.084-343.667c-4.343-5.205-9.975-7.782-15.834-8z" /></g></svg>