<?xml version="1.0" encoding="utf-8"?><!DOCTYPE svg PUBLIC "-//W3C//DTD SVG 1.1//EN" "http://www.w3.org/Graphics/SVG/1.1/DTD/svg11.dtd"><svg version="1.1" xmlns="http://www.w3.org/2000/svg" xmlns:xlink="http://www.w3.org/1999/xlink" width="16" height="16" viewBox="0 0 16 16" data-tags="sound,speaker,volume"><g fill="#444" transform="scale(0.015625 0.015625)"><path d="M816.416 301.288c-25.97 25.908-67.988 25.908-93.96 0-25.91-25.91-25.91-67.99 0-93.962l187.862-187.862c25.972-25.91 67.99-25.91 93.962 0 25.908 25.91 25.908 67.99 0 93.96l-187.864 187.864zM511.742 1023.454l-255.726-255.728h-191.796c-35.338 0-63.932-28.596-63.932-63.934l0-383.588c0-35.336 28.594-63.932 63.932-63.932h191.794l255.728-255.728c0 0 63.932-7.992 63.932 63.932 0 382.466 0 957.852 0 895.044 0 71.924-63.932 63.934-63.932 63.934zM447.81 256.272l-127.864 127.864-191.794-0v255.726h191.794l127.864 127.866-0-511.456zM767.468 575.93c-35.338 0-63.932-28.594-63.932-63.932 0-35.336 28.594-63.932 63.932-63.932h191.794c35.338 0 63.932 28.596 63.932 63.932 0 35.338-28.594 63.932-63.932 63.932h-191.794zM816.416 722.71l187.864 187.862c25.908 25.972 25.908 68.052 0 93.962-25.972 25.91-67.99 25.91-93.962 0l-187.862-187.862c-25.91-25.972-25.91-68.052 0-93.962 25.972-25.91 67.99-25.91 93.96 0z" /></g></svg>