<?xml version="1.0" encoding="utf-8"?><!DOCTYPE svg PUBLIC "-//W3C//DTD SVG 1.1//EN" "http://www.w3.org/Graphics/SVG/1.1/DTD/svg11.dtd"><svg version="1.1" xmlns="http://www.w3.org/2000/svg" xmlns:xlink="http://www.w3.org/1999/xlink" width="32" height="32" viewBox="0 0 32 32" data-tags="music,songs,sound"><g fill="#444" transform="scale(0.03125 0.03125)"><path d="M862.336 113.216c-171.584 3.392-370.368 33.12-541.984 89.216-0.096-1.12 0.64 509.696 0.64 509.696-30.976-7.008-65.984-2.944-102.752 13.824-68.224 31.008-105.44 93.696-83.104 140 22.336 46.368 95.744 58.816 163.968 27.744 62.368-33.44 82.432-63.68 84.48-107.424l1.536-442.624c135.232-39.776 278.24-63.36 413.536-70.656v395.712c-31.328-7.68-72.832-3.808-110.432 13.248-68.224 31.072-105.44 93.76-83.104 140.064 22.336 46.368 95.744 58.752 164 27.744 48.512-22.048 87.328-60.128 94.176-96.928 0.032-0.032-1.632-640.48-0.96-639.616z" /></g></svg>