<?xml version="1.0" encoding="utf-8"?><!DOCTYPE svg PUBLIC "-//W3C//DTD SVG 1.1//EN" "http://www.w3.org/Graphics/SVG/1.1/DTD/svg11.dtd"><svg version="1.1" xmlns="http://www.w3.org/2000/svg" xmlns:xlink="http://www.w3.org/1999/xlink" width="20" height="20" viewBox="0 0 20 20" data-tags="sound-mix"><g fill="#444" transform="scale(0.01953125 0.01953125)"><path d="M256 81.92c0-28.314-22.938-30.72-51.2-30.72-28.314 0-51.2 2.406-51.2 30.72v430.080h102.4v-430.080zM153.6 942.080c0 28.211 22.886 30.72 51.2 30.72 28.262 0 51.2-2.509 51.2-30.72v-174.080h-102.4v174.080zM327.629 563.2h-245.76c-28.314 0-30.669 22.938-30.669 51.2v51.2c0 28.314 2.355 51.2 30.669 51.2h245.811c28.16 0 30.72-22.886 30.72-51.2v-51.2c0-28.262-2.56-51.2-30.771-51.2zM942.029 614.4h-245.811c-28.262 0-30.618 22.938-30.618 51.2v51.2c0 28.314 2.355 51.2 30.669 51.2h245.811c28.16 0 30.72-22.886 30.72-51.2v-51.2c0-28.262-2.56-51.2-30.771-51.2zM665.6 358.4c0-28.262-2.56-51.2-30.771-51.2h-245.76c-28.314 0-30.669 22.938-30.669 51.2v51.2c0 28.314 2.355 51.2 30.669 51.2h245.811c28.16 0 30.72-22.886 30.72-51.2v-51.2zM563.2 81.92c0-28.314-22.938-30.72-51.2-30.72-28.314 0-51.2 2.406-51.2 30.72v174.080h102.4v-174.080zM460.8 942.080c0 28.211 22.886 30.72 51.2 30.72 28.262 0 51.2-2.509 51.2-30.72v-430.080h-102.4v430.080zM870.4 81.92c0-28.314-22.938-30.72-51.2-30.72-28.314 0-51.2 2.406-51.2 30.72v481.28h102.4v-481.28zM768 942.080c0 28.211 22.886 30.72 51.2 30.72 28.262 0 51.2-2.509 51.2-30.72v-122.88h-102.4v122.88z" /></g></svg>