<?xml version="1.0" encoding="utf-8"?><!DOCTYPE svg PUBLIC "-//W3C//DTD SVG 1.1//EN" "http://www.w3.org/Graphics/SVG/1.1/DTD/svg11.dtd"><svg version="1.1" xmlns="http://www.w3.org/2000/svg" xmlns:xlink="http://www.w3.org/1999/xlink" width="16" height="16" viewBox="0 0 16 16" data-tags="sound-alt,speaker,volume"><g fill="#444" transform="scale(0.015625 0.015625)"><path d="M639.934 1006.994v-134.68c148.736-52.848 255.866-193.4 255.866-360.314 0-166.852-107.13-307.464-255.868-360.312v-134.682c220.576 56.97 383.804 256.618 383.804 494.994s-163.228 438.086-383.802 494.994zM512 1023.736l-255.868-255.866h-191.902c-35.356 0-63.966-28.612-63.966-63.966l-0-383.804c0-35.358 28.612-63.966 63.966-63.966h191.902l255.868-255.868c0 0 63.966-7.996 63.966 63.966 0 145.798 0 764.106 0 895.538 0 71.962-63.966 63.966-63.966 63.966zM448.034 256.132l-127.934 127.934-191.902 0v255.868h191.902l127.934 127.936v-511.738zM831.834 512c0 119.064-81.708 218.264-191.9 246.81v-136.618c38.106-22.174 63.966-62.966 63.966-110.192 0-47.224-25.862-88.016-63.966-110.194v-136.616c110.192 28.548 191.9 127.748 191.9 246.81z" /></g></svg>