<?xml version="1.0" encoding="utf-8"?><!DOCTYPE svg PUBLIC "-//W3C//DTD SVG 1.1//EN" "http://www.w3.org/Graphics/SVG/1.1/DTD/svg11.dtd"><svg version="1.1" xmlns="http://www.w3.org/2000/svg" xmlns:xlink="http://www.w3.org/1999/xlink" width="16" height="16" viewBox="0 0 16 16" data-tags="sound off,mute,volume,speaker"><g fill="#444" transform="scale(0.015625 0.015625)"><path d="M1023.206 607.452l-95.388 95.452-95.452-95.452-95.45 95.452-95.388-95.452 95.388-95.452-95.388-95.45 95.388-95.452 95.45 95.452 95.452-95.452 95.388 95.452-95.39 95.45 95.39 95.452zM512.532 1023.736l-255.868-255.866h-191.902c-35.356 0-63.966-28.612-63.966-63.966l0-383.804c0-35.358 28.612-63.966 63.966-63.966h191.902l255.868-255.868c0 0 63.966-7.996 63.966 63.966 0 347.070 0 851.436 0 895.538 0 71.962-63.966 63.966-63.966 63.966zM448.564 256.132l-127.934 127.934-191.902 0v255.868h191.902l127.934 127.936 0-511.738z" /></g></svg>