<?xml version="1.0" encoding="utf-8"?><!DOCTYPE svg PUBLIC "-//W3C//DTD SVG 1.1//EN" "http://www.w3.org/Graphics/SVG/1.1/DTD/svg11.dtd"><svg version="1.1" xmlns="http://www.w3.org/2000/svg" xmlns:xlink="http://www.w3.org/1999/xlink" width="20" height="20" viewBox="0 0 20 20" data-tags="soundcloud"><g fill="#444" transform="scale(0.01953125 0.01953125)"><path d="M34.406 668.416l16.794-71.731-16.794-74.086c-0.461-2.202-4.71-3.891-9.779-3.891-5.222 0-9.421 1.69-9.779 3.891l-14.848 74.086 14.797 71.68c0.41 2.304 4.608 3.891 9.779 3.891 5.12 0.051 9.37-1.536 9.83-3.84zM139.418 708.198l14.182-110.797-14.182-171.418c-0.461-4.301-5.837-7.782-12.237-7.782-6.502 0-11.93 3.482-12.186 7.782l-12.595 171.418 12.595 110.797c0.307 4.403 5.683 7.782 12.186 7.782 6.4 0 11.776-3.379 12.237-7.782zM244.122 706.406l11.878-108.902-11.878-228.198c-0.307-5.427-6.605-9.626-14.438-9.626-7.782 0-14.080 4.198-14.387 9.626l-10.496 228.198 10.496 109.005c0.307 5.274 6.605 9.523 14.387 9.523 7.834-0.051 14.131-4.25 14.438-9.626zM348.672 704.819l9.728-107.315-9.728-229.888c-0.256-6.298-7.475-11.315-16.384-11.315-9.011 0-16.179 5.018-16.435 11.315l-8.653 229.888 8.704 107.315c0.205 6.298 7.424 11.315 16.384 11.315 8.909-0.051 16.128-4.915 16.384-11.315zM453.12 703.386l7.68-105.779-7.68-263.629c-0.205-7.27-8.397-13.056-18.33-13.056s-18.125 5.888-18.278 13.107l-6.912 263.475 6.912 105.882c0.154 7.219 8.346 13.107 18.278 13.107s18.125-5.786 18.33-13.107zM526.182 716.595c0.41 0 363.52 0.205 365.824 0.205 72.909 0 131.994-57.19 131.994-127.693s-59.085-127.59-131.994-127.59c-18.074 0-35.277 3.584-50.995 9.882-10.496-114.995-110.234-205.21-231.885-205.21-29.747 0-58.778 5.683-84.378 15.206-10.035 3.789-12.646 7.578-12.749 15.104v404.992c0.102 7.834 6.349 14.285 14.182 15.104z" /></g></svg>