<?xml version="1.0" encoding="utf-8"?><!DOCTYPE svg PUBLIC "-//W3C//DTD SVG 1.1//EN" "http://www.w3.org/Graphics/SVG/1.1/DTD/svg11.dtd"><svg version="1.1" xmlns="http://www.w3.org/2000/svg" xmlns:xlink="http://www.w3.org/1999/xlink" width="24" height="24" viewBox="0 0 24 24" data-tags="speaker"><g fill="#444" transform="scale(0.0234375 0.0234375)"><path d="M512 512q52 0 90 38t38 90-38 90-90 38-90-38-38-90 38-90 90-38zM512 854q88 0 151-63t63-151-63-151-151-63-151 63-63 151 63 151 151 63zM512 170q-36 0-61 25t-25 61 25 61 61 25q34 0 60-26t26-60-26-60-60-26zM726 86q34 0 59 25t25 59v684q0 34-25 59t-59 25h-428q-34 0-59-25t-25-59v-684q0-34 25-59t59-25h428z" /></g></svg>