<?xml version="1.0" encoding="utf-8"?><!DOCTYPE svg PUBLIC "-//W3C//DTD SVG 1.1//EN" "http://www.w3.org/Graphics/SVG/1.1/DTD/svg11.dtd"><svg version="1.1" xmlns="http://www.w3.org/2000/svg" xmlns:xlink="http://www.w3.org/1999/xlink" width="24" height="24" viewBox="0 0 24 24" data-tags="speaker_group"><g fill="#444" transform="scale(0.0234375 0.0234375)"><path d="M256 214v682h426v86h-426q-36 0-61-25t-25-61v-682h86zM490 534q0-44 32-76t76-32 75 32 31 76-31 75-75 31-76-31-32-75zM598 704q70 0 120-50t50-120-50-121-120-51-121 51-51 121 51 120 121 50zM598 128q-34 0-60 25t-26 61 25 60 61 24q34 0 59-24t25-60-25-61-59-25zM776 42q32 0 55 23t23 55v614q0 32-23 54t-55 22h-358q-32 0-54-22t-22-54v-614q0-32 22-55t54-23h358z" /></g></svg>