<?xml version="1.0" encoding="utf-8"?><!DOCTYPE svg PUBLIC "-//W3C//DTD SVG 1.1//EN" "http://www.w3.org/Graphics/SVG/1.1/DTD/svg11.dtd"><svg version="1.1" xmlns="http://www.w3.org/2000/svg" xmlns:xlink="http://www.w3.org/1999/xlink" width="32" height="32" viewBox="0 0 32 32" data-tags="ipod,music"><g fill="#444" transform="scale(0.03125 0.03125)"><path d="M704 128h-384c-35.36 0-64 28.672-64 64v640c0 35.328 28.64 64 64 64h384c35.328 0 64-28.672 64-64v-640c0-35.328-28.672-64-64-64zM512 832c-61.888 0-112-50.144-112-112 0-61.888 50.112-112 112-112 61.856 0 112 50.112 112 112 0 61.856-50.144 112-112 112zM704 544h-384l0.672-352h383.328v352zM512 656c-35.328 0-64 28.672-64 64s28.672 64 64 64 64-28.672 64-64-28.672-64-64-64z" /></g></svg>