<?xml version="1.0" encoding="utf-8"?><!DOCTYPE svg PUBLIC "-//W3C//DTD SVG 1.1//EN" "http://www.w3.org/Graphics/SVG/1.1/DTD/svg11.dtd"><svg version="1.1" xmlns="http://www.w3.org/2000/svg" xmlns:xlink="http://www.w3.org/1999/xlink" width="36" height="28" viewBox="0 0 36 28" data-code="61886" data-tags="soundcloud"><g fill="#444" transform="scale(0.02734375 0.02734375)"><path d="M448 784l9.143-137.714-9.143-298.857c-0.571-7.429-6.286-13.714-13.714-13.714-6.857 0-13.143 6.286-13.143 13.714l-8 298.857 8 137.714c0.571 7.429 6.286 13.143 13.143 13.143 7.429 0 13.143-5.714 13.714-13.143zM617.143 767.429l6.286-120.571-6.857-334.857c0-5.714-2.857-10.857-7.429-13.714-2.857-1.714-5.714-2.857-9.143-2.857s-6.286 1.143-9.143 2.857c-4.571 2.857-7.429 8-7.429 13.714l-0.571 3.429-5.714 330.857s0 0.571 6.286 134.857v0.571c0 3.429 1.143 6.857 3.429 9.714 3.429 4 8 6.286 13.143 6.286 4.571 0 8.571-2.286 11.429-5.143 3.429-2.857 5.143-6.857 5.143-11.429zM20 573.143l11.429 73.143-11.429 72c-0.571 2.857-2.286 5.143-5.143 5.143s-4.571-2.286-5.143-5.143l-9.714-72 9.714-73.143c0.571-2.857 2.286-5.143 5.143-5.143s4.571 2.286 5.143 5.143zM69.143 528l14.857 118.286-14.857 116c-0.571 2.857-2.857 5.143-5.714 5.143s-5.143-2.286-5.143-5.714l-13.143-115.429 13.143-118.286c0-2.857 2.286-5.143 5.143-5.143s5.143 2.286 5.714 5.143zM229.143 786.857v0 0zM121.714 506.286l14.286 140-14.286 135.429c0 3.429-2.857 6.286-6.286 6.286s-6.286-2.857-6.857-6.286l-12-135.429 12-140c0.571-4 3.429-6.857 6.857-6.857s6.286 2.857 6.286 6.857zM175.429 502.286l13.143 144-13.143 139.429c-0.571 4.571-4 7.429-8 7.429s-7.429-2.857-7.429-7.429l-12-139.429 12-144c0-4.571 3.429-7.429 7.429-7.429s7.429 2.857 8 7.429zM229.143 512.571l12 133.714-12 140.571c-0.571 5.143-4.571 9.143-9.143 9.143s-8.571-4-8.571-9.143l-11.429-140.571 11.429-133.714c0-4.571 4-8.571 8.571-8.571s8.571 4 9.143 8.571zM448 784v0 0zM282.857 429.143l12 217.143-12 140.571c0 5.714-4.571 10.286-9.714 10.286-5.714 0-9.714-4.571-10.286-10.286l-10.286-140.571 10.286-217.143c0.571-5.714 4.571-10.286 10.286-10.286 5.143 0 9.714 4.571 9.714 10.286zM336.571 380l10.857 267.429-10.857 139.429c0 6.286-5.143 10.857-10.857 10.857-6.286 0-10.857-4.571-11.429-10.857l-9.143-139.429 9.143-267.429c0.571-6.286 5.143-10.857 11.429-10.857 5.714 0 10.857 4.571 10.857 10.857zM392.571 357.143l10.286 289.143-10.286 138.286c-0.571 6.857-5.714 12-12.571 12-6.286 0-11.429-5.143-12-12l-9.143-138.286 9.143-289.143c0-6.857 5.714-12.571 12-12.571 6.857 0 12 5.714 12.571 12.571zM616.571 781.143v0 0 0 0 0 0zM503.429 354.857l8.571 291.429-8.571 136.571c0 8-6.286 14.286-14.286 14.286s-13.714-6.286-14.286-14.286l-8-136.571 8-291.429c0-8 6.286-14.286 14.286-14.286s14.286 6.286 14.286 14.286zM560 365.714l8 281.143-8 134.857c0 8.571-6.857 15.429-15.429 15.429s-15.429-6.857-16-15.429l-6.857-134.857 6.857-281.143c0.571-9.143 7.429-16 16-16s14.857 6.857 15.429 16zM681.143 646.857l-8 132c0 9.714-8 17.714-17.714 17.714s-17.714-8-18.286-17.714l-3.429-65.143-3.429-66.857 6.857-363.429v-1.714c0.571-5.143 2.857-10.286 6.857-13.714 2.857-2.286 6.857-4 11.429-4 2.857 0 6.286 1.143 8.571 2.857 5.143 2.857 8.571 8.571 9.143 14.857zM1316.571 636c0 89.143-72.571 161.143-161.714 161.143h-449.143c-9.714-1.143-17.714-8.571-17.714-18.857v-513.714c0-9.714 3.429-14.286 16-18.857 31.429-12.571 66.857-19.429 103.429-19.429 149.143 0 271.429 114.286 284.571 260 19.429-8 40.571-12.571 62.857-12.571 89.143 0 161.714 72.571 161.714 162.286z" /></g></svg>