<?xml version="1.0" encoding="utf-8"?><!DOCTYPE svg PUBLIC "-//W3C//DTD SVG 1.1//EN" "http://www.w3.org/Graphics/SVG/1.1/DTD/svg11.dtd"><svg version="1.1" xmlns="http://www.w3.org/2000/svg" xmlns:xlink="http://www.w3.org/1999/xlink" width="24" height="28" viewBox="0 0 24 28" data-code="61895" data-tags="file-audio-o,file-sound-o"><g fill="#444" transform="scale(0.02734375 0.02734375)"><path d="M838.857 217.143c21.143 21.143 38.857 63.429 38.857 93.714v658.286c0 30.286-24.571 54.857-54.857 54.857h-768c-30.286 0-54.857-24.571-54.857-54.857v-914.286c0-30.286 24.571-54.857 54.857-54.857h512c30.286 0 72.571 17.714 93.714 38.857zM585.143 77.714v214.857h214.857c-3.429-9.714-8.571-19.429-12.571-23.429l-178.857-178.857c-4-4-13.714-9.143-23.429-12.571zM804.571 950.857v-585.143h-237.714c-30.286 0-54.857-24.571-54.857-54.857v-237.714h-438.857v877.714h731.429zM354.286 485.714c6.857 2.857 11.429 9.714 11.429 17.143v310.857c0 7.429-4.571 14.286-11.429 17.143-2.286 0.571-4.571 1.143-6.857 1.143-4.571 0-9.143-1.714-13.143-5.143l-94.857-95.429h-74.857c-10.286 0-18.286-8-18.286-18.286v-109.714c0-10.286 8-18.286 18.286-18.286h74.857l94.857-95.429c5.714-5.143 13.143-6.857 20-4zM592.571 879.429c10.857 0 21.143-4.571 28.571-13.714 47.429-58.286 73.714-132 73.714-207.429s-26.286-149.143-73.714-207.429c-12.571-16-36-18.286-51.429-5.714-16 13.143-18.286 36-5.143 52 37.143 45.714 57.143 101.714 57.143 161.143s-20 115.429-57.143 161.143c-13.143 16-10.857 38.857 5.143 51.429 6.857 5.714 14.857 8.571 22.857 8.571zM472 794.857c9.714 0 19.429-4 26.857-11.429 32-34.286 49.714-78.286 49.714-125.143s-17.714-90.857-49.714-125.143c-13.714-14.857-37.143-15.429-52-1.714-14.286 13.714-15.429 37.143-1.143 52 18.857 20.571 29.714 46.857 29.714 74.857s-10.857 54.286-29.714 74.857c-14.286 14.857-13.143 38.286 1.143 52 7.429 6.286 16.571 9.714 25.143 9.714z" /></g></svg>