<?xml version="1.0" encoding="utf-8"?><!DOCTYPE svg PUBLIC "-//W3C//DTD SVG 1.1//EN" "http://www.w3.org/Graphics/SVG/1.1/DTD/svg11.dtd"><svg version="1.1" xmlns="http://www.w3.org/2000/svg" xmlns:xlink="http://www.w3.org/1999/xlink" width="24" height="24" viewBox="0 0 24 24" data-tags="surround_sound"><g fill="#444" transform="scale(0.0234375 0.0234375)"><path d="M512 426q34 0 60 26t26 60-26 60-60 26-60-26-26-60 26-60 60-26zM754 754q100-100 100-242v-2q0-58-29-129t-71-111l-62 62q76 76 76 180 0 108-74 182zM512 682q70 0 120-50t50-120-50-120-120-50-120 50-50 120 50 120 120 50zM332 692q-76-76-76-180 0-108 74-182l-60-60q-100 100-100 242v2q0 58 29 129t71 111zM854 170q34 0 59 26t25 60v512q0 34-25 60t-59 26h-684q-34 0-59-26t-25-60v-512q0-34 25-60t59-26h684z" /></g></svg>