<?xml version="1.0" encoding="utf-8"?><!DOCTYPE svg PUBLIC "-//W3C//DTD SVG 1.1//EN" "http://www.w3.org/Graphics/SVG/1.1/DTD/svg11.dtd"><svg version="1.1" xmlns="http://www.w3.org/2000/svg" xmlns:xlink="http://www.w3.org/1999/xlink" width="24" height="28" viewBox="0 0 24 28" data-code="61441" data-tags="music"><g fill="#444" transform="scale(0.02734375 0.02734375)"><path d="M877.714 128v640c0 80.571-120.571 109.714-182.857 109.714s-182.857-29.143-182.857-109.714 120.571-109.714 182.857-109.714c37.714 0 75.429 6.857 109.714 22.286v-306.857l-438.857 135.429v405.143c0 80.571-120.571 109.714-182.857 109.714s-182.857-29.143-182.857-109.714 120.571-109.714 182.857-109.714c37.714 0 75.429 6.857 109.714 22.286v-552.571c0-24 16-45.143 38.857-52.571l475.429-146.286c5.143-1.714 10.286-2.286 16-2.286 30.286 0 54.857 24.571 54.857 54.857z" /></g></svg>