<?xml version="1.0" encoding="utf-8"?><!DOCTYPE svg PUBLIC "-//W3C//DTD SVG 1.1//EN" "http://www.w3.org/Graphics/SVG/1.1/DTD/svg11.dtd"><svg version="1.1" xmlns="http://www.w3.org/2000/svg" xmlns:xlink="http://www.w3.org/1999/xlink" width="32" height="32" viewBox="0 0 32 32" data-tags="mic,microphone,sound,record,voice"><g fill="#444" transform="scale(0.03125 0.03125)"><path d="M896 480h-1.568c-15.744 168.8-152.288 352-318.432 352v128h192c17.696 0 32 14.304 32 32s-14.304 32-32 32h-512c-17.696 0-32-14.304-32-32s14.304-32 32-32h192v-128c-166.144 0-302.656-183.2-318.432-352h-1.568v-32 0 0-32 0-128c0-35.328 28.672-64 64-64s64 28.672 64 64v64 64 32c0 141.376 114.624 256 256 256s256-114.624 256-256v-32-64-64c0-35.328 28.672-64 64-64s64 28.672 64 64v64 128zM512 576c-88.384 0-128-71.616-128-160v-256c0-88.352 39.616-160 128-160s128 71.648 128 160v256c0 88.384-39.616 160-128 160zM560 448c8.832 0 16-7.168 16-16 0-8.8-7.168-16-16-16s-16 7.2-16 16c0 8.832 7.168 16 16 16zM464 256c-8.832 0-16 7.2-16 16 0 8.832 7.168 16 16 16s16-7.168 16-16c0-8.8-7.168-16-16-16zM480 208c0-8.832-7.168-16-16-16s-16 7.168-16 16c0 8.832 7.168 16 16 16s16-7.168 16-16zM496 352c-8.832 0-16 7.2-16 16 0 8.832 7.168 16 16 16s16-7.168 16-16c0-8.8-7.168-16-16-16zM528 352c8.832 0 16-7.168 16-16 0-8.8-7.168-16-16-16s-16 7.2-16 16c0 8.832 7.168 16 16 16zM496 320c8.832 0 16-7.168 16-16 0-8.8-7.168-16-16-16s-16 7.2-16 16c0 8.832 7.168 16 16 16zM464 320c-8.832 0-16 7.2-16 16 0 8.832 7.168 16 16 16s16-7.168 16-16c0-8.8-7.168-16-16-16zM496 256c8.832 0 16-7.168 16-16s-7.168-16-16-16-16 7.168-16 16c0 8.832 7.168 16 16 16zM528 224c8.832 0 16-7.168 16-16s-7.168-16-16-16-16 7.168-16 16c0 8.832 7.168 16 16 16zM528 256c-8.832 0-16 7.2-16 16 0 8.832 7.168 16 16 16s16-7.168 16-16c0-8.8-7.168-16-16-16zM560 256c8.832 0 16-7.168 16-16s-7.168-16-16-16-16 7.168-16 16c0 8.832 7.168 16 16 16zM560 288c-8.832 0-16 7.2-16 16 0 8.832 7.168 16 16 16s16-7.168 16-16c0-8.8-7.168-16-16-16zM560 352c-8.832 0-16 7.2-16 16 0 8.832 7.168 16 16 16s16-7.168 16-16c0-8.8-7.168-16-16-16zM528 416c8.832 0 16-7.168 16-16 0-8.8-7.168-16-16-16s-16 7.2-16 16c0 8.832 7.168 16 16 16zM496 448c8.832 0 16-7.168 16-16 0-8.8-7.168-16-16-16s-16 7.2-16 16c0 8.832 7.168 16 16 16zM464 416c8.832 0 16-7.168 16-16 0-8.8-7.168-16-16-16s-16 7.2-16 16c0 8.832 7.168 16 16 16zM464 128c-8.832 0-16 7.168-16 16s7.168 16 16 16 16-7.168 16-16c0-8.832-7.168-16-16-16zM496 160c-8.832 0-16 7.168-16 16s7.168 16 16 16 16-7.168 16-16c0-8.832-7.168-16-16-16zM528 128c-8.832 0-16 7.168-16 16s7.168 16 16 16 16-7.168 16-16c0-8.832-7.168-16-16-16zM560 160c-8.832 0-16 7.168-16 16s7.168 16 16 16 16-7.168 16-16c0-8.832-7.168-16-16-16z" /></g></svg>