<?xml version="1.0" encoding="utf-8"?><!DOCTYPE svg PUBLIC "-//W3C//DTD SVG 1.1//EN" "http://www.w3.org/Graphics/SVG/1.1/DTD/svg11.dtd"><svg version="1.1" xmlns="http://www.w3.org/2000/svg" xmlns:xlink="http://www.w3.org/1999/xlink" width="15" height="32" viewBox="0 0 15 32" data-code="57402" data-tags="mic,microphone,record,voice,audio"><g fill="#444" transform="scale(0.03125 0.03125)"><path d="M224 768.224v127.776h-94.912c-36.512 0-64 27.488-64 64v48c0 8.832 7.168 16 16 16h320c8.832 0 16-7.168 16-16v-45.6c0-37.248-28.128-66.4-64-66.4h-97.088v-127.776c127.136-8.896 226.176-113.92 226.176-242.048v-60.384c0-9.44-7.648-17.088-17.088-17.088s-17.088 7.68-17.088 17.12v60.384c0 115.104-92.8 208.704-206.912 208.704s-206.912-93.632-206.912-208.704v-60.384c0-9.44-7.648-17.088-17.088-17.088s-17.088 7.648-17.088 17.088v60.384c0 128.096 99.040 233.12 224 242.016zM385.088 962.4v29.6h-288v-32c0-18.848 13.152-32 32-32h224c18.24 0 32 14.784 32 34.4zM241.088-1.088c-80 0-145.088 65.888-145.088 146.912v380.384c0 80.992 65.088 146.912 145.088 146.912s145.088-65.92 142.912-146.912v-380.384c2.176-81.024-62.912-146.912-142.912-146.912zM352 526.176c0 62.144-49.76 112.704-110.912 112.704s-113.088-50.528-113.088-112.704v-380.352c0-62.144 51.936-112.704 113.088-112.704s110.912 50.528 110.912 112.704v380.352z" /></g></svg>