<?xml version="1.0" encoding="utf-8"?><!DOCTYPE svg PUBLIC "-//W3C//DTD SVG 1.1//EN" "http://www.w3.org/Graphics/SVG/1.1/DTD/svg11.dtd"><svg version="1.1" xmlns="http://www.w3.org/2000/svg" xmlns:xlink="http://www.w3.org/1999/xlink" width="35.906" height="28" viewBox="0 0 35.906 28" data-code="62110" data-tags="audio-description"><g fill="#444" transform="scale(0.02734375 0.02734375)"><path d="M288 568h97.714l-0.571-151.429zM874.286 511.429c0-63.429-36.571-110.286-112.571-110.286h-30.857v221.714h29.714c71.429 0 113.714-52 113.714-111.429zM546.286 296l0.571 432c0 10.857-8.571 19.429-18.857 19.429h-123.429c-10.286 0-18.857-8.571-18.857-19.429v-35.429h-166.286l-31.429 46.286c-3.429 5.143-9.714 8.571-16 8.571h-152.571c-16 0-25.143-17.714-15.429-30.286l317.714-432.571c3.429-5.143 9.143-8 15.429-8h189.714c10.857 0 19.429 8.571 19.429 19.429zM1018.857 511.429c0 150.286-109.714 236-257.143 236h-154.286c-10.857 0-19.429-8.571-19.429-19.429v-432c0-10.857 8.571-19.429 19.429-19.429h153.143c148.571 0 258.286 84.571 258.286 234.857zM1108 512c0 0 2.286 148.571-84.571 236h-29.143c77.714-92.571 79.429-236.571 79.429-236.571s1.143-113.143-77.143-234.286h24.571c84.571 96.571 86.857 234.857 86.857 234.857zM1213.143 512c0 0 2.286 148.571-85.143 236h-29.143c77.714-92.571 79.429-236.571 79.429-236.571s1.143-113.143-76.571-234.286h24.571c84.571 96.571 86.857 234.857 86.857 234.857zM1316.571 512c0 0 2.286 148.571-84.571 236h-29.143c77.143-92.571 78.857-236.571 78.857-236.571s1.143-113.143-76.571-234.286h24.571c84.571 96.571 86.857 234.857 86.857 234.857z" /></g></svg>