<?xml version="1.0" encoding="utf-8"?><!DOCTYPE svg PUBLIC "-//W3C//DTD SVG 1.1//EN" "http://www.w3.org/Graphics/SVG/1.1/DTD/svg11.dtd"><svg version="1.1" xmlns="http://www.w3.org/2000/svg" xmlns:xlink="http://www.w3.org/1999/xlink" width="32" height="32" viewBox="0 0 32 32" data-tags="headphones,music,song,sound,listen"><g fill="#444" transform="scale(0.03125 0.03125)"><path d="M960 832c-35.328 0-64-28.672-64-64v-64-192c0-212.064-171.936-384-384-384-212.064 0-384 171.936-384 384v192 64c0 35.328-28.672 64-64 64s-64-28.672-64-64v-64-192c0-282.784 229.248-512 512-512s512 229.216 512 512v192 64c0 35.328-28.672 64-64 64zM224 576h64c17.664 0 32 14.304 32 32v320c0 17.696-14.336 32-32 32h-64c-17.664 0-32-14.304-32-32v-320c0-17.696 14.336-32 32-32zM736 576h64c17.696 0 32 14.304 32 32v320c0 17.696-14.304 32-32 32h-64c-17.696 0-32-14.304-32-32v-320c0-17.696 14.304-32 32-32z" /></g></svg>