<?xml version="1.0" encoding="utf-8"?><!DOCTYPE svg PUBLIC "-//W3C//DTD SVG 1.1//EN" "http://www.w3.org/Graphics/SVG/1.1/DTD/svg11.dtd"><svg version="1.1" xmlns="http://www.w3.org/2000/svg" xmlns:xlink="http://www.w3.org/1999/xlink" width="24" height="24" viewBox="0 0 24 24" data-tags="music_video"><g fill="#444" transform="scale(0.0234375 0.0234375)"><path d="M342 640q0-52 38-90t90-38q14 0 42 8v-264h214v86h-128v300q0 52-38 89t-90 37-90-38-38-90zM896 810v-596h-768v596h768zM896 128q34 0 60 26t26 60v596q0 34-26 60t-60 26h-768q-34 0-60-26t-26-60v-596q0-34 26-60t60-26h768z" /></g></svg>