<?xml version="1.0" encoding="utf-8"?><!DOCTYPE svg PUBLIC "-//W3C//DTD SVG 1.1//EN" "http://www.w3.org/Graphics/SVG/1.1/DTD/svg11.dtd"><svg version="1.1" xmlns="http://www.w3.org/2000/svg" xmlns:xlink="http://www.w3.org/1999/xlink" width="32" height="32" viewBox="0 0 32 32" data-tags="ipod,music,song"><g fill="#444" transform="scale(0.03125 0.03125)"><path d="M768 0h-512c-35.328 0-64 28.672-64 64v896c0 35.328 28.672 64 64 64h512c35.328 0 64-28.672 64-64v-896c0-35.328-28.672-64-64-64zM512 960c-106.016 0-192-85.984-192-192s85.984-192 192-192 192 85.984 192 192-85.984 192-192 192zM768 480c0 17.696-14.304 32-32 32h-448c-17.664 0-32-14.304-32-32v-384c0-17.696 14.336-32 32-32h448c17.696 0 32 14.304 32 32v384zM512 704c-35.328 0-64 28.672-64 64s28.672 64 64 64 64-28.672 64-64-28.672-64-64-64z" /></g></svg>