<?xml version="1.0" encoding="utf-8"?><!DOCTYPE svg PUBLIC "-//W3C//DTD SVG 1.1//EN" "http://www.w3.org/Graphics/SVG/1.1/DTD/svg11.dtd"><svg version="1.1" xmlns="http://www.w3.org/2000/svg" xmlns:xlink="http://www.w3.org/1999/xlink" width="32" height="32" viewBox="0 0 32 32" data-tags="speakerdeck"><g fill="#444" transform="scale(0.03125 0.03125)"><path fill="rgb(51, 153, 102)" d="M477.867 580.181l0.853-136.363-113.92 68.693zM546.048 443.861l-0.64 136.107 113.792-68.608zM545.408 580.181v-0.171l-0.171 0.085zM1023.872 195.84c0-37.461-30.507-67.84-68.139-67.84h-887.467c-37.675 0-68.267 30.421-68.267 67.84v632.32c0 37.461 30.507 67.84 68.267 67.84h887.467c37.675 0 68.267-30.421 68.267-67.84v-632.32zM749.355 602.88h-0.597c0 25.003-19.883 44.885-44.8 45.44l1.536-0.683h-386.987c-24.747-0.427-44.8-20.48-44.8-45.227h-0.213v-180.864h0.427c0-24.747 19.755-44.8 44.075-45.227h386.56c24.32 0.725 44.8 20.48 44.8 45.525z" /></g></svg>