<?xml version="1.0" encoding="utf-8"?><!DOCTYPE svg PUBLIC "-//W3C//DTD SVG 1.1//EN" "http://www.w3.org/Graphics/SVG/1.1/DTD/svg11.dtd"><svg version="1.1" xmlns="http://www.w3.org/2000/svg" xmlns:xlink="http://www.w3.org/1999/xlink" width="20" height="20" viewBox="0 0 20 20" data-tags="sound-mute"><g fill="#444" transform="scale(0.01953125 0.01953125)"><path d="M727.091 470.733c71.117 96.41 93.082 180.070 79.821 193.382-13.312 13.21-96.922-8.704-193.434-79.821l-282.931 282.982c214.323 94.106 492.902-103.322 542.976-153.395 47.36-47.206 4.966-169.421-95.027-294.605l-51.405 51.456zM443.75 406.579c-56.269-84.89-73.267-154.778-61.133-166.912 11.93-11.981 81.92 4.915 166.758 61.286l52.378-52.48c-115.917-85.709-225.024-119.501-269.158-75.213-47.514 47.411-227.738 300.902-165.427 509.798l276.582-276.48zM948.275 75.674c-19.968-20.019-52.378-20.019-72.397 0l-800.205 800.256c-20.019 20.019-20.019 52.429 0 72.397 20.019 20.019 52.378 20.019 72.397 0l800.205-800.256c20.019-20.019 20.019-52.429 0-72.397z" /></g></svg>