<?xml version="1.0" encoding="utf-8"?><!DOCTYPE svg PUBLIC "-//W3C//DTD SVG 1.1//EN" "http://www.w3.org/Graphics/SVG/1.1/DTD/svg11.dtd"><svg version="1.1" xmlns="http://www.w3.org/2000/svg" xmlns:xlink="http://www.w3.org/1999/xlink" width="32" height="32" viewBox="0 0 32 32" data-tags="headphones,music,sound"><g fill="#444" transform="scale(0.03125 0.03125)"><path d="M960 576h-64v-128c0-212-172-384-384-384s-384 172-384 384v128h-64c-35.36 0-64 28.64-64 64v256c0 35.36 28.64 64 64 64h192v-512c0-141.248 114.752-256 256-256s256 114.752 256 256v512h192c35.36 0 64-28.64 64-64v-256c0-35.36-28.64-64-64-64z" /></g></svg>