<?xml version="1.0" encoding="utf-8"?><!DOCTYPE svg PUBLIC "-//W3C//DTD SVG 1.1//EN" "http://www.w3.org/Graphics/SVG/1.1/DTD/svg11.dtd"><svg version="1.1" xmlns="http://www.w3.org/2000/svg" xmlns:xlink="http://www.w3.org/1999/xlink" width="32" height="32" viewBox="0 0 32 32" data-tags="volume,sound"><g fill="#444" transform="scale(0.03125 0.03125)"><path d="M256 768c-141.376 0-256-114.624-256-256s114.624-256 256-256v512zM384 256l256-128v768l-256-128zM768.128 767.872v-128c10.624 0 21.376-1.376 32.128-4 56.128-14.24 95.744-65.248 95.744-123.872s-39.616-109.504-96.384-123.872c-10.112-2.496-20.864-3.872-31.488-3.872v-128c20.992 0 42.016 2.624 62.624 7.616 113.888 28.992 193.248 130.88 193.248 248.128 0 117.376-79.36 219.36-192.864 248.128-21.248 5.12-42.272 7.744-63.008 7.744v0z" /></g></svg>