<?xml version="1.0" encoding="utf-8"?><!DOCTYPE svg PUBLIC "-//W3C//DTD SVG 1.1//EN" "http://www.w3.org/Graphics/SVG/1.1/DTD/svg11.dtd"><svg version="1.1" xmlns="http://www.w3.org/2000/svg" xmlns:xlink="http://www.w3.org/1999/xlink" width="32" height="32" viewBox="0 0 32 32" data-tags="headphones,music,earphones"><g fill="#444" transform="scale(0.03125 0.03125)"><path d="M768 896v-64h-0.8c0.288-5.312 0.8-10.592 0.8-16v-272-80c0-150.208-121.792-272-272-272s-272 121.792-272 272v80 272c0 5.408 0.512 10.688 0.8 16h-0.8v64c0 0-160-2.688-160-176 0-98.304 51.424-141.664 96-160.8v-95.2c0-185.568 150.432-336 336-336s336 150.432 336 336v95.2c44.576 19.168 96 62.496 96 160.8 0 173.312-160 176-160 176zM288 896h-32v-352h32v352zM736 896h-32v-352h32v352z" /></g></svg>